<svg xmlns="http://www.w3.org/2000/svg" xmlns:xlink="http://www.w3.org/1999/xlink" version="1.1" x="0px" y="0px" viewBox="0 0 59 57.5" style="enable-background:new 0 0 59 46;" xml:space="preserve"><g><g><path d="M56.4,38.1l2.4-4.8l-5.3,1L52,32.9l-4-8l2.7-0.4l-3.9-3.7l0.9-5.3l-4.7,2.5l-4.8-2.5l0.5,3.1l-5.9-5l1.8-0.3l-3.9-3.7    l0.9-5.3L27,6.8l-4.8-2.5l0.6,3.4h-9.7l2.2-2.1L10,4.8L7.7,0L5.3,4.8L0,5.6l3.8,3.8l-0.9,5.3l3.7-1.9l-0.3,7.9l-5-1.4l2,5l-3,4.5    l5.3-0.4L9,32.6l1.2-4.8l10.6,2.4l-0.8,4.9l4.7-2.5l4.7,2.5l-0.9-5.3l3.8-3.8L27,25.3l-0.3-0.5l1.6,0.4L31,14.6l7.9,6.6l-3.4,3.4    l5.3,0.8l2.4,4.8l2.3-4.8l0.5-0.1l3.5,7L49,35.9l-4.7,2.5l4.9,2.3L50,46l3.7-3.9l5.3,0.8L56.4,38.1z M24.9,8L27,9.1L29.1,8    l-0.4,2.3l1,1l-0.2,0.8l-1.4,0.2l-1,2.1l-1-2.1L23.7,12l1.7-1.7L24.9,8z M4.3,7l2.3-0.3l1-2.1l1,2.1L11,7L9.4,8.7L9.8,11L7.7,9.9    L5.6,11L6,8.7L4.3,7z M8.6,25.9L8,28.2l-1.5-1.8l-2.3,0.2l1.3-2l-0.9-2.2L6.9,23l1.8-1.5l0.1,2.4l2,1.3L8.6,25.9z M28,27.5    l-1.7,1.6l0.4,2.3l-2.1-1.1l-2.1,1.1l0.4-2.3l-1.7-1.6l2.3-0.3l1-2.1l1,2.1L28,27.5z M26.5,24.3l-1.9-3.8l-2.4,4.8l-5.3,0.8    l1.6,1.6l-5.7-1.3l2.4-0.9l-4.5-2.9l-0.2-5.4l-2.2,1.8l0.3-6.4l3.8,2l-0.8-4.9h11.5l-3.7,3.7l5.3,0.7l2.4,4.8l1.5-3.1L26.5,24.3z     M44.1,23.4l-1,2.1l-1-2.1l-2.3-0.3l1.7-1.7L41,19.1l2.1,1.1l2.1-1.1l-0.4,2.3l1.7,1.6L44.1,23.4z M52.9,39.9l-1.6,1.7l-0.4-2.3    l-2.1-1l2.1-1.1l0.2-1.7l0.1,0.2l0.6-0.3l1.1,1.1l2.3-0.5l-1,2.1l1.1,2.1L52.9,39.9z"/></g></g></svg>
