<svg xmlns="http://www.w3.org/2000/svg" xmlns:xlink="http://www.w3.org/1999/xlink" version="1.1" x="0px" y="0px" viewBox="0 0 58 67.5" style="enable-background:new 0 0 58 54;" xml:space="preserve"><g><g><path d="M55.4,25.7C55.4,11.5,44,0,29.9,0C15.9,0,4.4,11.5,4.4,25.7c0,14.2,11.4,25.7,25.5,25.7C44,51.3,55.4,39.8,55.4,25.7z     M50.6,37H31.3c0.1-0.3,0.1-0.7,0.1-1h19.6C50.9,36.3,50.7,36.7,50.6,37z M29.9,2c6.5,0,12.4,2.7,16.6,7H13.3    C17.6,4.7,23.4,2,29.9,2z M11.5,11h36.8c0.5,0.6,1,1.3,1.4,2H10.1C10.6,12.3,11,11.6,11.5,11z M9,15h41.9c0.6,1.3,1.2,2.6,1.6,4    H7.4C7.8,17.6,8.3,16.3,9,15z M6.5,27H53v-2H6.5c0-0.3,0-0.7,0-1H53v-2H6.7c0.1-0.3,0.1-0.7,0.2-1H53c0.3,1.5,0.5,3.1,0.5,4.7    c0,2.9-0.5,5.7-1.5,8.3H31.2c-0.8-2.8-3.3-4.8-6.3-4.8s-5.5,2-6.3,4.8H8C7.1,31.8,6.6,29.4,6.5,27z M29.4,35.7    c0,2.5-2,4.5-4.5,4.5s-4.5-2-4.5-4.5c0-2.5,2-4.5,4.5-4.5S29.4,33.2,29.4,35.7z M8.8,36h9.7c0,0.3,0,0.7,0.1,1H9.3    C9.1,36.7,9,36.3,8.8,36z M29.9,49.3c-3.6,0-7.1-0.8-10.2-2.3h20.4C37,48.5,33.6,49.3,29.9,49.3z M43,45.3V45H16.4    c-2.3-1.6-4.3-3.7-5.9-6h8.8c1.1,2,3.2,3.3,5.6,3.3s4.5-1.3,5.6-3.3h18.8C47.7,41.5,45.5,43.6,43,45.3z M6.7,6.4c1.9,0,1.9-3,0-3    S4.8,6.4,6.7,6.4z M6.1,43.8c-1.9,0-1.9,3,0,3S8,43.8,6.1,43.8z M8.1,48.8c-1.9,0-1.9,3,0,3C10,51.8,10,48.8,8.1,48.8z M17.4,50.6    c-1.9,0-1.9,3,0,3S19.4,50.6,17.4,50.6z M53.8,3.4c1.9,0,1.9-3,0-3C51.9,0.4,51.9,3.4,53.8,3.4z M53.8,9.9c1.9,0,1.9-3,0-3    C51.9,6.9,51.9,9.9,53.8,9.9z M56.6,11.2c-1.9,0-1.9,3,0,3C58.5,14.2,58.5,11.2,56.6,11.2z M48.1,4.4c1.9,0,1.9-3,0-3    C46.1,1.4,46.1,4.4,48.1,4.4z M48.6,47.4c-1.9,0-1.9,3,0,3S50.5,47.4,48.6,47.4z M54.1,51c-1.9,0-1.9,3,0,3C56,54,56,51,54.1,51z     M1.5,17c-1.9,0-1.9,3,0,3C3.4,20,3.4,17,1.5,17z"/></g></g></svg>
