<svg xmlns="http://www.w3.org/2000/svg" xmlns:xlink="http://www.w3.org/1999/xlink" version="1.1" x="0px" y="0px" viewBox="0 0 52 70" style="enable-background:new 0 0 52 56;" xml:space="preserve"><g><g><path d="M51.3,6.2c-1.6-3.5-5.8-5-9.3-3.4L41.1,1l-6.4,3L36,6.6l-30,14l1.3,2.7L0,26.7l0.4,0.9l0,0l1.3,2.7l0.8,1.8l7.3-3.4    l1.3,2.7l16.7-7.8L14.9,48.5l1.8,0.9l6.2-11.9c1.9,0.8,4,1.3,6.1,1.4v17h2V39c2.1-0.1,4-0.6,5.8-1.4L43,49.5l1.8-0.9L31.1,22.2    l10-4.7l1.3,2.7l6.4-3l-0.8-1.8C51.4,13.8,53,9.7,51.3,6.2z M3.5,29.5l-0.8-1.8l5.5-2.5l-0.8-1.6L9,26.9L3.5,29.5z M12.1,28.8    l-3.4-7.2l2.7-1.3l3.4,7.2L12.1,28.8z M29,37c-1.8-0.1-3.5-0.5-5.1-1.1c0-0.1,0.1-0.1,0.1-0.2c0,0-0.1,0-0.1,0l5.1-9.8V37z     M35.9,35.8c-1.5,0.6-3.2,1-4.9,1.2V26.4L35.9,35.8z M16.6,26.7l-3.4-7.2l16.4-7.6l3.4,7.2l0.8-0.4L16.6,26.7z M34.8,18.2L31.4,11    l1.8-0.8l3.4,7.2L34.8,18.2z M38.5,16.6l-3.4-7.2l1.8-0.8l3.4,7.2L38.5,16.6z M43.4,17.6l-0.4-0.9L37.9,5.8l-0.4-0.9l2.7-1.3    l5.9,12.7L43.4,17.6z M47.1,13.7l-4.2-9.1c2.5-1.2,5.5-0.1,6.7,2.4C50.7,9.5,49.6,12.5,47.1,13.7z M6.8,7c2.2,0,4,1.8,4,4    c0,0.6,0.4,1,1,1s1-0.4,1-1c0-2.2,1.8-4,4-4c0.6,0,1-0.4,1-1c0-0.6-0.4-1-1-1c-2.2,0-4-1.8-4-4c0-0.6-0.4-1-1-1s-1,0.4-1,1    c0,2.2-1.8,4-4,4c-0.6,0-1,0.4-1,1C5.8,6.6,6.2,7,6.8,7z M11.8,4.3c0.4,0.7,1,1.2,1.7,1.7c-0.7,0.4-1.2,1-1.7,1.7    c-0.4-0.7-1-1.2-1.7-1.7C10.8,5.6,11.3,5,11.8,4.3z"/></g></g></svg>
