<svg xmlns="http://www.w3.org/2000/svg" xmlns:xlink="http://www.w3.org/1999/xlink" version="1.1" x="0px" y="0px" viewBox="0 0 55.7 60" style="enable-background:new 0 0 55.7 48;" xml:space="preserve"><g><g><path d="M43.3,34.9c-0.4,0.2-1,0.3-1.5,0.3c-0.4,0-0.7-0.1-1-0.1c-2.3,2.9-5.5,5-9.2,5.9c-1.3,0.3-2.7,0.5-4.1,0.5    c-2.2,0-4.3-0.4-6.2-1.2c-0.5,0.4-1.1,0.7-1.9,0.7c-0.2,0.1-0.4,0.2-0.6,0.3c2.6,1.4,5.6,2.1,8.7,2.1c1.5,0,3.1-0.2,4.6-0.6    C36.7,41.7,40.7,38.9,43.3,34.9z M55.6,19.1c-1-3.8-6.1-6.1-13.3-6.5c-3.5-4.3-8.8-7-14.7-7c-1.5,0-3.1,0.2-4.6,0.6    c-4.9,1.2-9.1,4.3-11.7,8.6c-1.1,1.9-1.9,3.9-2.3,6c-6.2,3.8-9.7,8.2-8.8,12c1.6,6.5,15,8.5,30.6,4.7    C46.2,33.6,57.2,25.6,55.6,19.1z M9.1,29c0.2,0.8,0.5,1.6,0.8,2.4c0.5-0.3,1.1-0.5,1.8-0.5c0.1,0,0.1,0,0.2,0    c-0.3-0.8-0.6-1.6-0.8-2.5c-1.1-4.4-0.4-8.9,1.9-12.8c2.3-3.9,6.1-6.6,10.4-7.7c1.3-0.3,2.7-0.5,4.1-0.5c7.8,0,14.6,5.3,16.4,12.9    c0.3,1.1,0.4,2.2,0.5,3.3c0.5-0.4,1.1-0.7,1.9-0.8c-0.1-1-0.2-2-0.5-3c-0.2-1-0.6-1.9-0.9-2.8c2.1,0.6,3.5,1.5,3.8,2.6    c0.8,3.3-7,9-19.4,12.1c-12.4,3.1-22,1.6-22.8-1.7C6.2,29,7,27.6,8.6,26.1C8.7,27.1,8.9,28,9.1,29z M30.2,35.5    c-15.4,3.8-27,1.4-28.1-3.2c-0.6-2.5,1.8-5.8,6.5-9c0,0.1,0,0.1,0,0.2c-3.2,2.5-4.5,5.1-4,7.1c1.1,4.3,10.3,6.8,25.2,3.2    c15-3.7,21.9-10.2,20.9-14.5c-0.5-2-2.9-3.7-6.9-4.4c0-0.1-0.1-0.1-0.1-0.2c5.6,0.6,9.3,2.4,9.9,4.9    C54.8,24.2,45.6,31.7,30.2,35.5z M3,7c2.2,0,4,1.8,4,4c0,0.6,0.4,1,1,1s1-0.4,1-1c0-2.2,1.8-4,4-4c0.6,0,1-0.4,1-1    c0-0.6-0.4-1-1-1c-2.2,0-4-1.8-4-4c0-0.6-0.4-1-1-1S7,0.4,7,1c0,2.2-1.8,4-4,4C2.4,5,2,5.4,2,6C2,6.6,2.4,7,3,7z M8,4.3    C8.4,5,9,5.6,9.7,6C9,6.4,8.4,7,8,7.7C7.5,7,7,6.4,6.3,6C7,5.6,7.5,5,8,4.3z M51,41.5c-1.9,0-3.5-1.6-3.5-3.5c0-0.6-0.4-1-1-1    c-0.6,0-1,0.4-1,1c0,1.9-1.6,3.5-3.5,3.5c-0.6,0-1,0.4-1,1c0,0.6,0.4,1,1,1c1.9,0,3.5,1.6,3.5,3.5c0,0.6,0.4,1,1,1    c0.6,0,1-0.4,1-1c0-1.9,1.6-3.5,3.5-3.5c0.6,0,1-0.4,1-1C52,41.9,51.6,41.5,51,41.5z M46.5,43.8c-0.4-0.5-0.8-1-1.3-1.3    c0.5-0.4,1-0.8,1.3-1.3c0.4,0.5,0.8,1,1.3,1.3C47.3,42.9,46.9,43.3,46.5,43.8z"/></g></g></svg>
