<svg xmlns="http://www.w3.org/2000/svg" xmlns:xlink="http://www.w3.org/1999/xlink" version="1.1" x="0px" y="0px" viewBox="0 0 53 65" style="enable-background:new 0 0 53 52;" xml:space="preserve"><g><g><path d="M51.8,1.2C51,0.4,49.9,0,48.6,0c-4.8,0-13.1,5-20.6,12.6C18.5,22,16.3,35,16.3,35.5L16,36.9l1.3-0.2    c0.5-0.1,13.5-2.2,23-11.7c4.6-4.6,8.3-9.5,10.5-13.8C53.3,6.4,53.6,3,51.8,1.2z M49.2,10.3c-2.1,4.1-5.7,8.9-10.2,13.3    c-7.3,7.2-17,10-20.5,10.8c0.8-3.6,3.6-13.3,10.9-20.5c7.1-7.1,15-12,19.2-12c0.8,0,1.5,0.2,1.9,0.6C51.6,3.7,51.1,6.6,49.2,10.3z     M33.3,34.3l-0.5-1.2l-1,0.9c-1.7,1.5-4,2.6-6.5,3.2c-0.4,0.1-0.7,0.1-1.1,0.2l-0.8,0.1L22.9,46l0.8,0.2c0.5,0.1,1,0.1,1.6,0.1    c0.6,0,1.3-0.1,1.9-0.2c4.6-1,7.6-5.6,6.5-10.3C33.6,35.3,33.5,34.8,33.3,34.3z M26.8,44.2c-0.5,0.1-1,0.2-1.5,0.2    c-0.1,0-0.2,0-0.4,0l0.3-5.2c0.1,0,0.3-0.1,0.4-0.1c2.3-0.5,4.5-1.5,6.2-2.7C32.6,39.9,30.3,43.4,26.8,44.2z M19.9,20.3l-1.2-0.5    c-0.5-0.2-1-0.4-1.5-0.5c-0.6-0.1-1.3-0.2-1.9-0.2c-4,0-7.5,2.8-8.4,6.7c-0.3,1.1-0.3,2.3-0.1,3.4L7,30.1l8.6-0.4l0.1-0.8    c0.1-0.4,0.1-0.7,0.2-1.1c0.6-2.5,1.7-4.8,3.2-6.5L19.9,20.3z M14,27.4c0,0.1-0.1,0.3-0.1,0.4L8.7,28c0-0.6,0-1.2,0.1-1.8    c0.7-3,3.4-5.2,6.5-5.2c0.5,0,0.9,0,1.4,0.1C15.4,22.9,14.5,25.1,14,27.4z M35.8,12.3c-1.3,0-2.5,0.5-3.5,1.4    c-1.9,1.9-1.9,5,0,6.9c0.9,0.9,2.2,1.4,3.5,1.4s2.5-0.5,3.5-1.4c0.9-0.9,1.4-2.1,1.4-3.5c0-1.3-0.5-2.5-1.4-3.5    C38.3,12.8,37.1,12.3,35.8,12.3z M37.9,19.2c-1.1,1.1-3,1.1-4.2,0c-1.1-1.1-1.1-3,0-4.1c0.6-0.6,1.3-0.9,2.1-0.9s1.5,0.3,2.1,0.9    c0.6,0.6,0.9,1.3,0.9,2.1C38.7,17.9,38.4,18.7,37.9,19.2z M14.4,38.6c-0.1-0.1-2.8-2.8-5.7-2.8c-0.9,0-1.7,0.2-2.4,0.7    c-3.2,2.1-5.2,7.1-5.3,7.3c-0.1,0.4-0.1,0.8,0.2,1.1c0.3,0.3,0.7,0.4,1.1,0.2l1.2-0.5l-3.3,3.8c-0.2,0.3-0.3,0.6-0.2,1    c0.1,0.3,0.4,0.6,0.7,0.6c0,0,0.9,0.2,2.1,0.2c1.9,0,4.5-0.4,6.5-2.3c-0.1,0.7-0.3,1.8-0.6,2.9c-0.1,0.4,0,0.8,0.4,1.1    C9.4,51.9,9.6,52,9.8,52c0.2,0,0.4,0,0.5-0.1c3-1.9,7.7-7,4.3-13C14.5,38.8,14.5,38.7,14.4,38.6z M11.3,48.5    c0.1-1.1,0.1-2-0.3-2.5c-0.3-0.3-0.7-0.5-1.1-0.5c-0.6,0-1.1,0.3-1.8,1c-1.5,1.5-3.6,1.8-5.1,1.8l4.6-5.4c0.3-0.3,0.3-0.8,0.1-1.2    c-0.3-0.4-0.7-0.5-1.2-0.3l-2.5,1c0.8-1.4,2-3.2,3.5-4.2c0.4-0.3,0.8-0.4,1.3-0.4c1.6,0,3.5,1.5,4.2,2.1    C15,43.6,13.1,46.7,11.3,48.5z"/></g></g></svg>
