<svg xmlns="http://www.w3.org/2000/svg" xmlns:xlink="http://www.w3.org/1999/xlink" version="1.1" x="0px" y="0px" viewBox="0 0 52 65" style="enable-background:new 0 0 52 52;" xml:space="preserve"><g><g><path d="M31.1,19.7c-1.2-1.2-3.1-1.2-4.3,0L25,21.6c2-3.5,1.5-8-1.5-10.9c-0.4-0.4-1-0.4-1.4,0c-0.4,0.4-0.4,1,0,1.4    c2.5,2.5,2.7,6.5,0.7,9.2l-6.1-6.1c0.6-1.2,0.4-2.7-0.6-3.7c-1.3-1.3-3.3-1.3-4.6,0c-1.3,1.3-1.3,3.3,0,4.6c1,1,2.5,1.2,3.7,0.6    l6.1,6.1c-2.8,2.1-6.7,1.9-9.2-0.7c-0.4-0.4-1-0.4-1.4,0c-0.4,0.4-0.4,1,0,1.4c3,2.9,7.4,3.4,10.9,1.5l-1.9,1.9    c-1.2,1.2-1.2,3.1,0,4.3l11.4,11.4c1.2,1.2,3.1,1.2,4.3,0l7.1-7.1c1.2-1.2,1.2-3.1,0-4.3L31.1,19.7z M41.1,34L34,41.1    c-0.4,0.4-1,0.4-1.4,0L21.1,29.7c-0.4-0.4-0.4-1,0-1.4l7.1-7.1c0.4-0.4,1-0.4,1.4,0l11.4,11.4C41.5,33,41.5,33.6,41.1,34z     M51.1,9.7L45.4,4c-1.2-1.2-3.1-1.2-4.3,0l-10,10c-1.2,1.2-1.2,3.1,0,4.3l5.7,5.7c1.2,1.2,3.1,1.2,4.3,0l10-10    C52.3,12.8,52.3,10.9,51.1,9.7z M42.5,5.4c0.4-0.4,1-0.4,1.4,0l2.1,2.1l-2.9,2.9l-2.9-2.9L42.5,5.4z M39,9l2.9,2.9L39,14.7    l-2.9-2.9L39,9z M32.6,16.9c-0.4-0.4-0.4-1,0-1.4l2.1-2.1l2.9,2.9L34.7,19L32.6,16.9z M39.7,22.6c-0.4,0.4-1,0.4-1.4,0l-2.1-2.1    l2.9-2.9l2.9,2.9L39.7,22.6z M43.3,19l-2.9-2.9l2.9-2.9l2.9,2.9L43.3,19z M49.7,12.6l-2.1,2.1l-2.9-2.9L47.5,9l2.1,2.1    C50.1,11.5,50.1,12.2,49.7,12.6z M18.3,31.1c-1.2-1.2-3.1-1.2-4.3,0L11.2,34l0,0c0,0,0,0,0,0L4,41.1c-1.2,1.2-1.2,3.1,0,4.3    l2.9,2.9c0,0,0,0,0,0s0,0,0,0l2.9,2.9c1.2,1.2,3.1,1.2,4.3,0l7.1-7.1c0,0,0,0,0,0s0,0,0,0l2.9-2.9c1.2-1.2,1.2-3.1,0-4.3    L18.3,31.1z M15.4,32.6c0.4-0.4,1-0.4,1.4,0l2.1,2.1l-2.9,2.9l-2.9-2.9L15.4,32.6z M11.9,36.1l2.9,2.9l-2.9,2.9L9,39L11.9,36.1z     M5.4,44c-0.4-0.4-0.4-1,0-1.4l2.1-2.1l2.9,2.9l-2.9,2.9L5.4,44z M12.6,49.7c-0.4,0.4-1,0.4-1.4,0L9,47.5l2.9-2.9l2.9,2.9    L12.6,49.7z M16.1,46.1l-2.9-2.9l2.9-2.9l2.9,2.9L16.1,46.1z M22.6,39.7l-2.1,2.1L17.6,39l2.9-2.9l2.1,2.1    C23,38.7,23,39.3,22.6,39.7z M18.8,8.8c0.4,0.4,1,0.4,1.4,0s0.4-1,0-1.4c-3.5-3.5-9.3-3.5-12.8,0c-3.5,3.5-3.5,9.3,0,12.8    c0.4,0.4,1,0.4,1.4,0c0.4-0.4,0.4-1,0-1.4C6,16,6,11.5,8.8,8.8C11.5,6,16,6,18.8,8.8z M5.5,23.5c0.4-0.4,0.4-1,0-1.4    c-4.6-4.6-4.6-12,0-16.6c4.6-4.6,12-4.6,16.6,0c0.4,0.4,1,0.4,1.4,0c0.4-0.4,0.4-1,0-1.4C18.1-1.3,9.4-1.3,4,4    c-5.4,5.4-5.4,14.1,0,19.5C4.4,23.9,5.1,23.9,5.5,23.5z"/></g></g></svg>
