<svg xmlns="http://www.w3.org/2000/svg" xmlns:xlink="http://www.w3.org/1999/xlink" version="1.1" x="0px" y="0px" viewBox="0 0 44 65" style="enable-background:new 0 0 44 52;" xml:space="preserve"><g><g><path d="M28,8H16c-0.5,0-1,0.4-1,1v4c0,0.6,0.4,1,1,1H28c0.5,0,1-0.4,1-1V9C29,8.4,28.5,8,28,8z M27,12H17v-2H27V12z M31.9,23    c-0.5,0-1,0.4-1,1v26h-5.9l-2.1-9.7c-0.1-0.5-0.5-0.8-1-0.8s-0.9,0.3-1,0.8L18.9,50h-5.8V29c0-0.6-0.4-1-1-1c-0.5,0-1,0.4-1,1v22    c0,0.6,0.4,1,1,1h7.6c0.5,0,0.9-0.3,1-0.8l1.3-6l1.3,6c0.1,0.5,0.5,0.8,1,0.8h7.7c0.5,0,1-0.4,1-1V24C32.9,23.4,32.5,23,31.9,23z     M27,29c0.5,0,1-0.4,1-1v-7c0-0.6-0.4-1-1-1H17c-0.5,0-1,0.4-1,1v7c0,0.6,0.4,1,1,1H27z M18,22H26v5H18V22z M43.7,29.6l-3.7-11.7    c-0.8-2.6-3.3-4.2-5.5-3.5l-1.6,0.5V8.7C32.9,4,28.7,0,23.7,0h-3.1c-5,0-9.5,4.1-9.5,8.7v6.2l-1.6-0.5c-2.2-0.7-4.7,0.9-5.5,3.5    L0.3,29.6c-0.4,1.4-0.3,2.9,0.3,4.1c0.5,1,1.3,1.6,2.2,1.9c0.4,0.1,0.7,0.2,1.1,0.2c1.9,0,3.7-1.5,4.4-3.7l1.3-4.2    c0-0.1,0.1-0.1,0.1-0.2c0-0.1,0-0.2,0-0.3l0.3-0.9c0.2-0.5-0.1-1.1-0.6-1.3c-0.5-0.2-1.1,0.1-1.2,0.7l-0.1,0.2l-4.2-1.5l1.9-6.1    c0.5-1.6,1.9-2.6,3-2.2l3.1,1c0.3,0.1,0.6,0,0.9-0.2c0.1,0,0.3,0,0.4,0.1c2.1,0.4,4.9,0.8,8.8,0.8c3.2,0,6.2-0.5,8.9-0.9l0.3,0    c0.2,0.2,0.6,0.3,0.9,0.2l3.1-1c1.1-0.4,2.5,0.7,3,2.2l1.9,6.1l-4.2,1.5l-0.1-0.2c-0.2-0.5-0.7-0.8-1.2-0.7    c-0.5,0.2-0.8,0.7-0.6,1.3l0.3,0.9c0,0.1,0,0.2,0,0.3c0,0.1,0.1,0.1,0.1,0.2l1.3,4.2c0.7,2.2,2.6,3.7,4.4,3.7    c0.4,0,0.7-0.1,1.1-0.2c0.9-0.3,1.7-1,2.2-1.9C44.1,32.5,44.2,31,43.7,29.6z M6.4,31.5c-0.5,1.6-1.9,2.6-3,2.2    c-0.6-0.2-0.9-0.6-1.1-0.9c-0.4-0.7-0.4-1.7-0.1-2.6l0.2-0.7L6.6,31L6.4,31.5z M7.5,28l-0.3,1.1L3,27.6l0.3-1.1L7.5,28z     M30.9,15.1l-0.3,0.1C28,15.5,25.1,16,22,16c-3.7,0-6.5-0.5-8.5-0.8c-0.2,0-0.3-0.1-0.5-0.1V8.7c0-3.5,3.6-6.7,7.5-6.7h3.1    c3.9,0,7.3,3.1,7.3,6.7V15.1z M36.9,29.1L36.5,28l4.2-1.5l0.3,1.1L36.9,29.1z M41.7,32.8c-0.2,0.3-0.5,0.8-1.1,0.9    c-1.1,0.4-2.5-0.7-3-2.2L37.5,31l4.2-1.5l0.2,0.7C42.1,31.1,42.1,32,41.7,32.8z"/></g></g></svg>
