<svg xmlns="http://www.w3.org/2000/svg" xmlns:xlink="http://www.w3.org/1999/xlink" version="1.1" x="0px" y="0px" viewBox="0 0 48.9 53.75" style="enable-background:new 0 0 48.9 43;" xml:space="preserve"><g><g><path d="M21.7,4c-3.4,1-6.1,3.6-7.3,6.9c-0.2,0.5,0.1,1.1,0.6,1.3c0.1,0,0.2,0.1,0.3,0.1c0.4,0,0.8-0.3,0.9-0.7    c1-2.7,3.2-4.9,5.9-5.7c0.5-0.2,0.8-0.7,0.7-1.2C22.7,4.2,22.2,3.9,21.7,4z M1.1,29.3c0,0.1,0,0.1,0.1,0.2c0,0.1,0.1,0.1,0.1,0.2    c0,0.1,0.1,0.1,0.2,0.1c0,0,0,0,0.1,0.1c0,0,0.1,0,0.1,0c0,0,0.1,0,0.1,0C1.8,30,1.9,30,2,30h0c0,0,0,0,0,0h45.9h0h0    c0.1,0,0.2,0,0.3-0.1c0,0,0.1,0,0.1,0c0,0,0.1,0,0.1,0c0,0,0,0,0.1-0.1c0.1,0,0.1-0.1,0.2-0.1c0,0,0.1-0.1,0.1-0.2    c0-0.1,0.1-0.1,0.1-0.2c0-0.1,0-0.1,0-0.2c0,0,0-0.1,0-0.1c0,0,0-0.1,0-0.1c0-0.1,0-0.1,0-0.2c0-0.1,0-0.1-0.1-0.2    c0,0,0-0.1,0-0.1l-8.8-13.8C39.7,5.9,33.1,0,24.9,0C16.8,0,10.1,5.9,10,14.7L1.2,28.5c0,0,0,0.1,0,0.1c0,0.1-0.1,0.1-0.1,0.2    c0,0.1,0,0.1,0,0.2c0,0,0,0.1,0,0.1c0,0,0,0.1,0,0.1C1,29.2,1,29.2,1.1,29.3z M24.9,2c6.8,0,12.5,4.6,12.9,12H12    C12.5,6.6,18.1,2,24.9,2z M11.5,16h26.8L46,28H3.8L11.5,16z M14,18c-2.2,0-4,1.8-4,4c0,2.2,1.8,4,4,4s4-1.8,4-4    C18,19.8,16.2,18,14,18z M14,24c-1.1,0-2-0.9-2-2c0-1.1,0.9-2,2-2s2,0.9,2,2C16,23.1,15.1,24,14,24z M24.9,18c-2.2,0-4,1.8-4,4    c0,2.2,1.8,4,4,4s4-1.8,4-4C28.9,19.8,27.1,18,24.9,18z M24.9,24c-1.1,0-2-0.9-2-2c0-1.1,0.9-2,2-2c1.1,0,2,0.9,2,2    C26.9,23.1,26,24,24.9,24z M35.9,18c-2.2,0-4,1.8-4,4c0,2.2,1.8,4,4,4c2.2,0,4-1.8,4-4C39.9,19.8,38.1,18,35.9,18z M35.9,24    c-1.1,0-2-0.9-2-2c0-1.1,0.9-2,2-2c1.1,0,2,0.9,2,2C37.9,23.1,37,24,35.9,24z M12,41h-2v-6c0-0.6-0.4-1-1-1c-0.6,0-1,0.4-1,1v6H6    c-0.6,0-1,0.4-1,1c0,0.6,0.4,1,1,1h6c0.6,0,1-0.4,1-1C13,41.4,12.5,41,12,41z M43,41h-2v-6c0-0.6-0.4-1-1-1s-1,0.4-1,1v6h-2    c-0.6,0-1,0.4-1,1c0,0.6,0.4,1,1,1h6c0.6,0,1-0.4,1-1C44,41.4,43.6,41,43,41z M28,41h-2v-6c0-0.6-0.4-1-1-1s-1,0.4-1,1v6h-2    c-0.6,0-1,0.4-1,1c0,0.6,0.4,1,1,1h6c0.6,0,1-0.4,1-1C29,41.4,28.6,41,28,41z M47.9,31H1c-0.6,0-1,0.4-1,1c0,0.6,0.4,1,1,1h46.9    c0.6,0,1-0.4,1-1C48.9,31.4,48.4,31,47.9,31z"/></g></g></svg>
